<svg width="40" height="56" viewBox="0 0 40 56" fill="none" xmlns="http://www.w3.org/2000/svg">
<path d="M10.9583 55.6523V42.3458H26.3781V55.6523H10.9583ZM14.1675 37.806L12.2106 24.7343L12.8368 24.0299C17.2201 23.6646 20.351 22.9601 22.2296 21.9165C24.1603 20.8729 25.1257 19.4639 25.1257 17.6897C25.1257 16.333 24.6039 15.2894 23.5602 14.5588C22.5688 13.7761 21.1338 13.3847 19.2552 13.3847C15.4981 13.3847 11.6888 15.1067 7.82732 18.5508L0 8.21869C5.47912 2.73956 12.2367 0 20.2728 0C26.1172 0 30.8396 1.48719 34.4402 4.46157C38.0408 7.43595 39.8411 11.4801 39.8411 16.5939C39.8411 21.1859 38.4843 24.7604 35.7709 27.3174C33.1096 29.8221 29.3785 31.6485 24.5778 32.7965L23.6385 37.806H14.1675Z" fill="white"/>
</svg>
